<mxfile host="app.diagrams.net" modified="2022-04-25T01:49:54.099Z" agent="5.0 (X11; Linux x86_64) AppleWebKit/537.36 (KHTML, like Gecko) Chrome/100.0.4896.127 Safari/537.36" etag="QA-6ZjX8GC9rAnClZX9D" version="17.4.6" type="github">
  <diagram id="Lk_EI4CYU3kLC5U5zO_d" name="Page-1">
    <mxGraphModel dx="1038" dy="553" grid="1" gridSize="10" guides="1" tooltips="1" connect="1" arrows="1" fold="1" page="1" pageScale="1" pageWidth="827" pageHeight="1169" background="none" math="0" shadow="0">
      <root>
        <mxCell id="0" />
        <mxCell id="1" parent="0" />
        <mxCell id="JeV1txEWlBGmem2Ouphh-2" value="USER" style="swimlane;childLayout=stackLayout;horizontal=1;startSize=30;horizontalStack=0;rounded=1;fontSize=14;fontStyle=0;strokeWidth=2;resizeParent=0;resizeLast=1;shadow=0;dashed=0;align=center;gradientColor=none;" vertex="1" parent="1">
          <mxGeometry x="251" y="30" width="326" height="60" as="geometry">
            <mxRectangle x="334" y="40" width="70" height="30" as="alternateBounds" />
          </mxGeometry>
        </mxCell>
        <mxCell id="JeV1txEWlBGmem2Ouphh-12" style="edgeStyle=orthogonalEdgeStyle;rounded=0;orthogonalLoop=1;jettySize=auto;html=1;exitX=0.5;exitY=0;exitDx=0;exitDy=0;entryX=0.5;entryY=1;entryDx=0;entryDy=0;" edge="1" parent="1" source="JeV1txEWlBGmem2Ouphh-6" target="JeV1txEWlBGmem2Ouphh-2">
          <mxGeometry relative="1" as="geometry" />
        </mxCell>
        <mxCell id="JeV1txEWlBGmem2Ouphh-73" style="edgeStyle=none;rounded=0;orthogonalLoop=1;jettySize=auto;html=1;exitX=0.5;exitY=1;exitDx=0;exitDy=0;entryX=0.143;entryY=0;entryDx=0;entryDy=0;entryPerimeter=0;endArrow=none;endFill=0;" edge="1" parent="1" source="JeV1txEWlBGmem2Ouphh-6" target="JeV1txEWlBGmem2Ouphh-18">
          <mxGeometry relative="1" as="geometry" />
        </mxCell>
        <mxCell id="JeV1txEWlBGmem2Ouphh-6" value="UT NON REGISTRATO" style="swimlane;childLayout=stackLayout;horizontal=1;startSize=30;horizontalStack=0;rounded=1;fontSize=14;fontStyle=0;strokeWidth=2;resizeParent=0;resizeLast=1;shadow=0;dashed=0;align=center;gradientColor=none;" vertex="1" parent="1">
          <mxGeometry x="40" y="160" width="160" height="120" as="geometry" />
        </mxCell>
        <mxCell id="JeV1txEWlBGmem2Ouphh-14" style="edgeStyle=orthogonalEdgeStyle;rounded=0;orthogonalLoop=1;jettySize=auto;html=1;exitX=0.5;exitY=0;exitDx=0;exitDy=0;entryX=0.5;entryY=1;entryDx=0;entryDy=0;" edge="1" parent="1" source="JeV1txEWlBGmem2Ouphh-8" target="JeV1txEWlBGmem2Ouphh-2">
          <mxGeometry relative="1" as="geometry" />
        </mxCell>
        <mxCell id="JeV1txEWlBGmem2Ouphh-66" style="edgeStyle=none;rounded=0;orthogonalLoop=1;jettySize=auto;html=1;exitX=0.25;exitY=1;exitDx=0;exitDy=0;entryX=0.429;entryY=0.013;entryDx=0;entryDy=0;entryPerimeter=0;endArrow=none;endFill=0;" edge="1" parent="1" source="JeV1txEWlBGmem2Ouphh-8" target="JeV1txEWlBGmem2Ouphh-18">
          <mxGeometry relative="1" as="geometry" />
        </mxCell>
        <mxCell id="JeV1txEWlBGmem2Ouphh-67" style="edgeStyle=none;rounded=0;orthogonalLoop=1;jettySize=auto;html=1;exitX=0.5;exitY=1;exitDx=0;exitDy=0;entryX=0.5;entryY=0;entryDx=0;entryDy=0;endArrow=none;endFill=0;startArrow=none;" edge="1" parent="1" source="JeV1txEWlBGmem2Ouphh-75" target="JeV1txEWlBGmem2Ouphh-18">
          <mxGeometry relative="1" as="geometry" />
        </mxCell>
        <mxCell id="JeV1txEWlBGmem2Ouphh-8" value="UTENTE REGISTRATO" style="swimlane;childLayout=stackLayout;horizontal=1;startSize=30;horizontalStack=0;rounded=1;fontSize=14;fontStyle=0;strokeWidth=2;resizeParent=0;resizeLast=1;shadow=0;dashed=0;align=center;gradientColor=none;" vertex="1" parent="1">
          <mxGeometry x="240" y="160" width="160" height="120" as="geometry" />
        </mxCell>
        <mxCell id="JeV1txEWlBGmem2Ouphh-15" style="edgeStyle=orthogonalEdgeStyle;rounded=0;orthogonalLoop=1;jettySize=auto;html=1;exitX=0.5;exitY=0;exitDx=0;exitDy=0;entryX=0.5;entryY=1;entryDx=0;entryDy=0;" edge="1" parent="1" source="JeV1txEWlBGmem2Ouphh-9" target="JeV1txEWlBGmem2Ouphh-2">
          <mxGeometry relative="1" as="geometry" />
        </mxCell>
        <mxCell id="JeV1txEWlBGmem2Ouphh-69" style="edgeStyle=none;rounded=0;orthogonalLoop=1;jettySize=auto;html=1;exitX=0.5;exitY=1;exitDx=0;exitDy=0;entryX=0.857;entryY=0;entryDx=0;entryDy=0;entryPerimeter=0;endArrow=none;endFill=0;" edge="1" parent="1" source="JeV1txEWlBGmem2Ouphh-9" target="JeV1txEWlBGmem2Ouphh-18">
          <mxGeometry relative="1" as="geometry" />
        </mxCell>
        <mxCell id="JeV1txEWlBGmem2Ouphh-9" value="RECEPTIONIST" style="swimlane;childLayout=stackLayout;horizontal=1;startSize=30;horizontalStack=0;rounded=1;fontSize=14;fontStyle=0;strokeWidth=2;resizeParent=0;resizeLast=1;shadow=0;dashed=0;align=center;gradientColor=none;" vertex="1" parent="1">
          <mxGeometry x="440" y="160" width="160" height="120" as="geometry" />
        </mxCell>
        <mxCell id="JeV1txEWlBGmem2Ouphh-16" style="edgeStyle=orthogonalEdgeStyle;rounded=0;orthogonalLoop=1;jettySize=auto;html=1;exitX=0.5;exitY=0;exitDx=0;exitDy=0;entryX=0.5;entryY=1;entryDx=0;entryDy=0;" edge="1" parent="1" source="JeV1txEWlBGmem2Ouphh-10" target="JeV1txEWlBGmem2Ouphh-2">
          <mxGeometry relative="1" as="geometry" />
        </mxCell>
        <mxCell id="JeV1txEWlBGmem2Ouphh-10" value="ADMIN" style="swimlane;childLayout=stackLayout;horizontal=1;startSize=30;horizontalStack=0;rounded=1;fontSize=14;fontStyle=0;strokeWidth=2;resizeParent=0;resizeLast=1;shadow=0;dashed=0;align=center;gradientColor=none;" vertex="1" parent="1">
          <mxGeometry x="640" y="160" width="160" height="120" as="geometry" />
        </mxCell>
        <mxCell id="JeV1txEWlBGmem2Ouphh-17" value="CAMERA/ALLOGGIO" style="swimlane;childLayout=stackLayout;horizontal=1;startSize=30;horizontalStack=0;rounded=1;fontSize=14;fontStyle=0;strokeWidth=2;resizeParent=0;resizeLast=1;shadow=0;dashed=0;align=center;gradientColor=none;" vertex="1" parent="1">
          <mxGeometry x="167" y="640" width="306" height="120" as="geometry" />
        </mxCell>
        <mxCell id="JeV1txEWlBGmem2Ouphh-77" style="edgeStyle=none;rounded=0;orthogonalLoop=1;jettySize=auto;html=1;exitX=0.5;exitY=1;exitDx=0;exitDy=0;entryX=0.5;entryY=0;entryDx=0;entryDy=0;endArrow=none;endFill=0;" edge="1" parent="1" source="JeV1txEWlBGmem2Ouphh-18" target="JeV1txEWlBGmem2Ouphh-17">
          <mxGeometry relative="1" as="geometry" />
        </mxCell>
        <mxCell id="JeV1txEWlBGmem2Ouphh-18" value="DATA" style="swimlane;childLayout=stackLayout;horizontal=1;startSize=30;horizontalStack=0;rounded=1;fontSize=14;fontStyle=0;strokeWidth=2;resizeParent=0;resizeLast=1;shadow=0;dashed=0;align=center;gradientColor=none;" vertex="1" parent="1">
          <mxGeometry x="40" y="400" width="560" height="120" as="geometry" />
        </mxCell>
        <mxCell id="JeV1txEWlBGmem2Ouphh-72" value="Seleziona" style="text;html=1;align=center;verticalAlign=middle;resizable=0;points=[];autosize=1;strokeColor=none;fillColor=none;shadow=0;glass=0;labelBorderColor=none;labelBackgroundColor=default;" vertex="1" parent="1">
          <mxGeometry x="230" y="320" width="70" height="20" as="geometry" />
        </mxCell>
        <mxCell id="JeV1txEWlBGmem2Ouphh-74" value="Seleziona" style="text;html=1;align=center;verticalAlign=middle;resizable=0;points=[];autosize=1;strokeColor=none;fillColor=none;shadow=0;glass=0;labelBorderColor=none;labelBackgroundColor=default;" vertex="1" parent="1">
          <mxGeometry x="85" y="320" width="70" height="20" as="geometry" />
        </mxCell>
        <mxCell id="JeV1txEWlBGmem2Ouphh-76" value="Seleziona" style="text;html=1;align=center;verticalAlign=middle;resizable=0;points=[];autosize=1;strokeColor=none;fillColor=none;shadow=0;glass=0;labelBorderColor=none;labelBackgroundColor=default;" vertex="1" parent="1">
          <mxGeometry x="480" y="320" width="70" height="20" as="geometry" />
        </mxCell>
        <mxCell id="JeV1txEWlBGmem2Ouphh-78" value="Possiede" style="text;html=1;align=center;verticalAlign=middle;resizable=0;points=[];autosize=1;strokeColor=none;fillColor=none;shadow=0;glass=0;labelBorderColor=none;labelBackgroundColor=default;" vertex="1" parent="1">
          <mxGeometry x="285" y="575" width="70" height="20" as="geometry" />
        </mxCell>
        <mxCell id="JeV1txEWlBGmem2Ouphh-83" style="edgeStyle=none;rounded=0;orthogonalLoop=1;jettySize=auto;html=1;exitX=0.5;exitY=0;exitDx=0;exitDy=0;endArrow=none;endFill=0;" edge="1" parent="1" source="JeV1txEWlBGmem2Ouphh-80">
          <mxGeometry relative="1" as="geometry">
            <mxPoint x="720" y="380" as="targetPoint" />
          </mxGeometry>
        </mxCell>
        <mxCell id="JeV1txEWlBGmem2Ouphh-80" value="ORDINE" style="swimlane;childLayout=stackLayout;horizontal=1;startSize=30;horizontalStack=0;rounded=1;fontSize=14;fontStyle=0;strokeWidth=2;resizeParent=0;resizeLast=1;shadow=0;dashed=0;align=center;gradientColor=none;" vertex="1" parent="1">
          <mxGeometry x="640" y="400" width="160" height="120" as="geometry" />
        </mxCell>
        <mxCell id="JeV1txEWlBGmem2Ouphh-81" value="" style="endArrow=none;html=1;rounded=0;entryX=0.75;entryY=1;entryDx=0;entryDy=0;" edge="1" parent="1" target="JeV1txEWlBGmem2Ouphh-8">
          <mxGeometry width="50" height="50" relative="1" as="geometry">
            <mxPoint x="360" y="380" as="sourcePoint" />
            <mxPoint x="470" y="310" as="targetPoint" />
          </mxGeometry>
        </mxCell>
        <mxCell id="JeV1txEWlBGmem2Ouphh-82" value="" style="endArrow=none;html=1;rounded=0;" edge="1" parent="1">
          <mxGeometry width="50" height="50" relative="1" as="geometry">
            <mxPoint x="360" y="380" as="sourcePoint" />
            <mxPoint x="720" y="380" as="targetPoint" />
          </mxGeometry>
        </mxCell>
        <mxCell id="JeV1txEWlBGmem2Ouphh-84" value="Prenota" style="text;html=1;align=center;verticalAlign=middle;resizable=0;points=[];autosize=1;strokeColor=none;fillColor=none;shadow=0;glass=0;labelBorderColor=none;labelBackgroundColor=default;" vertex="1" parent="1">
          <mxGeometry x="340" y="320" width="60" height="20" as="geometry" />
        </mxCell>
        <mxCell id="JeV1txEWlBGmem2Ouphh-75" value="Iscritto" style="text;html=1;align=center;verticalAlign=middle;resizable=0;points=[];autosize=1;strokeColor=none;fillColor=none;shadow=0;glass=0;labelBorderColor=none;labelBackgroundColor=default;" vertex="1" parent="1">
          <mxGeometry x="295" y="320" width="50" height="20" as="geometry" />
        </mxCell>
        <mxCell id="JeV1txEWlBGmem2Ouphh-85" value="" style="edgeStyle=none;rounded=0;orthogonalLoop=1;jettySize=auto;html=1;exitX=0.5;exitY=1;exitDx=0;exitDy=0;entryX=0.5;entryY=0;entryDx=0;entryDy=0;endArrow=none;endFill=0;" edge="1" parent="1" source="JeV1txEWlBGmem2Ouphh-8" target="JeV1txEWlBGmem2Ouphh-75">
          <mxGeometry relative="1" as="geometry">
            <mxPoint x="320" y="280" as="sourcePoint" />
            <mxPoint x="320" y="400" as="targetPoint" />
          </mxGeometry>
        </mxCell>
        <mxCell id="JeV1txEWlBGmem2Ouphh-87" value="1..*" style="text;html=1;align=center;verticalAlign=middle;resizable=0;points=[];autosize=1;strokeColor=none;fillColor=none;shadow=0;glass=0;labelBorderColor=none;labelBackgroundColor=default;" vertex="1" parent="1">
          <mxGeometry x="120" y="280" width="30" height="20" as="geometry" />
        </mxCell>
        <mxCell id="JeV1txEWlBGmem2Ouphh-88" value="1..*" style="text;html=1;align=center;verticalAlign=middle;resizable=0;points=[];autosize=1;strokeColor=none;fillColor=none;shadow=0;glass=0;labelBorderColor=none;labelBackgroundColor=default;" vertex="1" parent="1">
          <mxGeometry x="280" y="280" width="30" height="20" as="geometry" />
        </mxCell>
        <mxCell id="JeV1txEWlBGmem2Ouphh-89" value="1..*" style="text;html=1;align=center;verticalAlign=middle;resizable=0;points=[];autosize=1;strokeColor=none;fillColor=none;shadow=0;glass=0;labelBorderColor=none;labelBackgroundColor=default;" vertex="1" parent="1">
          <mxGeometry x="315" y="280" width="30" height="20" as="geometry" />
        </mxCell>
        <mxCell id="JeV1txEWlBGmem2Ouphh-90" value="1..*" style="text;html=1;align=center;verticalAlign=middle;resizable=0;points=[];autosize=1;strokeColor=none;fillColor=none;shadow=0;glass=0;labelBorderColor=none;labelBackgroundColor=default;" vertex="1" parent="1">
          <mxGeometry x="355" y="280" width="30" height="20" as="geometry" />
        </mxCell>
        <mxCell id="JeV1txEWlBGmem2Ouphh-91" value="1..*" style="text;html=1;align=center;verticalAlign=middle;resizable=0;points=[];autosize=1;strokeColor=none;fillColor=none;shadow=0;glass=0;labelBorderColor=none;labelBackgroundColor=default;" vertex="1" parent="1">
          <mxGeometry x="520" y="280" width="30" height="20" as="geometry" />
        </mxCell>
        <mxCell id="JeV1txEWlBGmem2Ouphh-92" value="2" style="text;html=1;align=center;verticalAlign=middle;resizable=0;points=[];autosize=1;strokeColor=none;fillColor=none;shadow=0;glass=0;labelBorderColor=none;labelBackgroundColor=default;" vertex="1" parent="1">
          <mxGeometry x="120" y="380" width="20" height="20" as="geometry" />
        </mxCell>
        <mxCell id="JeV1txEWlBGmem2Ouphh-93" value="2" style="text;html=1;align=center;verticalAlign=middle;resizable=0;points=[];autosize=1;strokeColor=none;fillColor=none;shadow=0;glass=0;labelBorderColor=none;labelBackgroundColor=default;" vertex="1" parent="1">
          <mxGeometry x="275" y="380" width="20" height="20" as="geometry" />
        </mxCell>
        <mxCell id="JeV1txEWlBGmem2Ouphh-94" value="1" style="text;html=1;align=center;verticalAlign=middle;resizable=0;points=[];autosize=1;strokeColor=none;fillColor=none;shadow=0;glass=0;labelBorderColor=none;labelBackgroundColor=default;" vertex="1" parent="1">
          <mxGeometry x="320" y="380" width="20" height="20" as="geometry" />
        </mxCell>
        <mxCell id="JeV1txEWlBGmem2Ouphh-95" value="2" style="text;html=1;align=center;verticalAlign=middle;resizable=0;points=[];autosize=1;strokeColor=none;fillColor=none;shadow=0;glass=0;labelBorderColor=none;labelBackgroundColor=default;" vertex="1" parent="1">
          <mxGeometry x="520" y="380" width="20" height="20" as="geometry" />
        </mxCell>
        <mxCell id="JeV1txEWlBGmem2Ouphh-96" value="1..*" style="text;html=1;align=center;verticalAlign=middle;resizable=0;points=[];autosize=1;strokeColor=none;fillColor=none;shadow=0;glass=0;labelBorderColor=none;labelBackgroundColor=default;" vertex="1" parent="1">
          <mxGeometry x="720" y="380" width="30" height="20" as="geometry" />
        </mxCell>
        <mxCell id="JeV1txEWlBGmem2Ouphh-97" value="1..*" style="text;html=1;align=center;verticalAlign=middle;resizable=0;points=[];autosize=1;strokeColor=none;fillColor=none;shadow=0;glass=0;labelBorderColor=none;labelBackgroundColor=default;" vertex="1" parent="1">
          <mxGeometry x="315" y="620" width="30" height="20" as="geometry" />
        </mxCell>
        <mxCell id="JeV1txEWlBGmem2Ouphh-98" value="2" style="text;html=1;align=center;verticalAlign=middle;resizable=0;points=[];autosize=1;strokeColor=none;fillColor=none;shadow=0;glass=0;labelBorderColor=none;labelBackgroundColor=default;" vertex="1" parent="1">
          <mxGeometry x="320" y="520" width="20" height="20" as="geometry" />
        </mxCell>
      </root>
    </mxGraphModel>
  </diagram>
</mxfile>
